HIERARCHY
ROOT Hips
{
	OFFSET 0.000000 0.000000 0.000000 
	CHANNELS 6 Xposition Yposition Zposition Zrotation Yrotation Xrotation
	JOINT LHipJoint
	{
		OFFSET 0.000000 0.000000 0.000000 
		CHANNELS 3 Zrotation Yrotation Xrotation
		JOINT LeftUpLeg
		{
			OFFSET 0.049174 -0.055197 0.022926 
			CHANNELS 3 Zrotation Yrotation Xrotation
			JOINT LeftLeg
			{
				OFFSET 0.075187 -0.206577 0.000000 
				CHANNELS 3 Zrotation Yrotation Xrotation
				JOINT LeftFoot
				{
					OFFSET 0.083177 -0.228528 0.000000 
					CHANNELS 3 Zrotation Yrotation Xrotation
					JOINT LeftToeBase
					{
						OFFSET 0.006522 -0.017919 0.066408 
						CHANNELS 3 Zrotation Yrotation Xrotation
						End Site
						{
							OFFSET 0.000000 -0.000000 0.034549 
						}
					}
				}
			}
		}
	}
	JOINT RHipJoint
	{
		OFFSET 0.000000 0.000000 0.000000 
		CHANNELS 3 Zrotation Yrotation Xrotation
		JOINT RightUpLeg
		{
			OFFSET -0.046656 -0.055197 0.022926 
			CHANNELS 3 Zrotation Yrotation Xrotation
			JOINT RightLeg
			{
				OFFSET -0.076145 -0.209206 0.000000 
				CHANNELS 3 Zrotation Yrotation Xrotation
				JOINT RightFoot
				{
					OFFSET -0.082175 -0.225773 0.000000 
					CHANNELS 3 Zrotation Yrotation Xrotation
					JOINT RightToeBase
					{
						OFFSET -0.008058 -0.022138 0.069332 
						CHANNELS 3 Zrotation Yrotation Xrotation
						End Site
						{
							OFFSET -0.000000 -0.000000 0.036391 
						}
					}
				}
			}
		}
	}
	JOINT LowerBack
	{
		OFFSET 0.000000 0.000000 0.000000 
		CHANNELS 3 Zrotation Yrotation Xrotation
		JOINT Spine
		{
			OFFSET -0.000011 0.066375 -0.007953 
			CHANNELS 3 Zrotation Yrotation Xrotation
			JOINT Spine1
			{
				OFFSET 0.001748 0.066993 -0.001037 
				CHANNELS 3 Zrotation Yrotation Xrotation
				JOINT Neck
				{
					OFFSET 0.000000 0.000000 0.000000 
					CHANNELS 3 Zrotation Yrotation Xrotation
					JOINT Neck1
					{
						OFFSET -0.003073 0.050852 0.007566 
						CHANNELS 3 Zrotation Yrotation Xrotation
						JOINT Head
						{
							OFFSET 0.003390 0.051888 -0.007078 
							CHANNELS 3 Zrotation Yrotation Xrotation
							End Site
							{
								OFFSET 0.001370 0.052583 -0.003294 
							}
						}
					}
				}
				JOINT LeftShoulder
				{
					OFFSET 0.000000 0.000000 0.000000 
					CHANNELS 3 Zrotation Yrotation Xrotation
					JOINT LeftArm
					{
						OFFSET 0.102846 0.024812 -0.021306 
						CHANNELS 3 Zrotation Yrotation Xrotation
						JOINT LeftForeArm
						{
							OFFSET 0.161034 -0.000000 -0.000000 
							CHANNELS 3 Zrotation Yrotation Xrotation
							JOINT LeftHand
							{
								OFFSET 0.117231 -0.000000 -0.000000 
								CHANNELS 3 Zrotation Yrotation Xrotation
								JOINT LeftFingerBase
								{
									OFFSET 0.000000 0.000000 0.000000 
									CHANNELS 3 Zrotation Yrotation Xrotation
									JOINT LeftHandIndex1
									{
										OFFSET 0.016537 -0.000000 0.000000 
										CHANNELS 3 Zrotation Yrotation Xrotation
										End Site
										{
											OFFSET 0.013332 -0.000000 0.000000 
										}
									}
								}
								JOINT LThumb
								{
									OFFSET 0.000000 0.000000 0.000000 
									CHANNELS 3 Zrotation Yrotation Xrotation
									End Site
									{
										OFFSET 0.013536 -0.000000 0.013536 
									}
								}
							}
						}
					}
				}
				JOINT RightShoulder
				{
					OFFSET 0.000000 0.000000 0.000000 
					CHANNELS 3 Zrotation Yrotation Xrotation
					JOINT RightArm
					{
						OFFSET -0.096067 0.033214 -0.013856 
						CHANNELS 3 Zrotation Yrotation Xrotation
						JOINT RightForeArm
						{
							OFFSET -0.165504 -0.000000 0.000000 
							CHANNELS 3 Zrotation Yrotation Xrotation
							JOINT RightHand
							{
								OFFSET -0.117545 -0.000000 -0.000000 
								CHANNELS 3 Zrotation Yrotation Xrotation
								JOINT RightFingerBase
								{
									OFFSET 0.000000 0.000000 0.000000 
									CHANNELS 3 Zrotation Yrotation Xrotation
									JOINT RightHandIndex1
									{
										OFFSET -0.023354 -0.000000 0.000000 
										CHANNELS 3 Zrotation Yrotation Xrotation
										End Site
										{
											OFFSET -0.018828 -0.000000 0.000000 
										}
									}
								}
								JOINT RThumb
								{
									OFFSET 0.000000 0.000000 0.000000 
									CHANNELS 3 Zrotation Yrotation Xrotation
									End Site
									{
										OFFSET -0.019116 -0.000000 0.019116 
									}
								}
							}
						}
					}
				}
			}
		}
	}
}
MOTION
Frames: 6
Frame Time: 0.008333
0.287934 0.518222 0.121738 28.954500 -58.459599 -17.424000 0.000000 0.000000 0.000000 -23.152000 -6.265200 15.425800 2.872800 10.486200 30.566099 1.226300 0.897900 20.662300 0.096800 -2.006600 -5.524000 0.000000 0.000000 0.000000 28.885700 5.607000 -42.028400 -7.090300 -15.407500 49.215000 0.253700 -10.310400 -9.358500 -0.411800 -4.119200 11.412100 -7.870100 -2.610700 11.218400 -1.961200 -4.680600 -0.237800 3.090800 -2.099200 -6.094700 -13.001400 -7.883700 -23.689100 10.049400 -8.598500 15.713500 4.300100 -3.680000 9.887500 0.000000 -0.000000 0.000000 -90.350700 16.292200 45.095600 128.568604 -53.556702 -92.678497 -0.000000 0.000000 -32.936401 11.738400 11.620200 2.396600 -7.125000 0.000000 -0.000000 -13.702600 41.442200 1.228200 0.000000 -0.000000 0.000000 81.755798 -25.136700 45.828400 -127.583702 53.924702 -91.884300 0.000000 -0.000000 -15.184700 -6.735000 19.700199 -2.279700 7.125000 -0.000000 -0.000000 13.898700 -10.595300 11.457400 
0.281244 0.517306 0.128400 29.514000 -59.226101 -17.995001 0.000000 0.000000 0.000000 -23.288099 -6.590400 14.373500 3.420600 11.346700 33.458302 1.101700 1.200300 19.478800 0.036400 -1.231400 -3.385800 0.000000 0.000000 0.000000 29.698400 4.804400 -41.048100 -6.987500 -15.321400 48.827000 0.267600 -10.404900 -9.155100 -1.212500 -6.985200 19.671499 -7.478600 -2.516600 11.308500 -1.622000 -4.488800 -0.315500 3.211700 -2.001100 -6.248200 -12.778600 -7.517700 -23.495300 9.476500 -8.022900 15.189300 4.153500 -3.467400 9.557400 0.000000 -0.000000 0.000000 -90.526901 16.020500 45.873199 127.346703 -54.011101 -91.692703 -0.000000 0.000000 -32.105301 12.843800 10.328300 2.340800 -7.125000 0.000000 -0.000000 -12.443500 40.256699 1.481400 0.000000 -0.000000 0.000000 81.545799 -24.972300 44.806499 -127.665901 53.894600 -91.950699 0.000000 -0.000000 -15.970500 -7.092000 19.741699 -2.406400 7.125000 -0.000000 -0.000000 13.671100 -10.527900 11.277400 
0.274503 0.515919 0.134803 30.109600 -60.254101 -18.633400 0.000000 0.000000 0.000000 -23.110701 -6.069700 13.137700 4.002600 12.163800 36.313900 0.977300 0.543800 18.513901 0.079500 -1.819300 -5.006600 0.000000 0.000000 0.000000 30.673700 3.838300 -39.977200 -6.982200 -15.316800 48.806801 0.229600 -10.670900 -10.846100 -1.112800 -6.701700 18.834700 -7.167500 -2.344500 11.214800 -1.240500 -4.176000 -0.259600 3.387100 -1.854800 -6.159000 -12.446700 -7.182000 -23.529200 8.802000 -7.495500 14.863500 3.943400 -3.274100 9.339900 0.000000 -0.000000 0.000000 -91.126801 15.881700 46.709301 126.135201 -54.440102 -90.709801 -0.000000 0.000000 -30.258900 13.728000 9.243900 2.247300 -7.125000 0.000000 -0.000000 -11.457700 39.241299 1.651200 0.000000 -0.000000 0.000000 81.195801 -24.495199 44.059399 -127.694702 53.883999 -91.973999 0.000000 -0.000000 -16.656200 -7.289100 19.788000 -2.479500 7.125000 -0.000000 -0.000000 13.545200 -10.467500 11.184300 
0.267609 0.514431 0.141141 30.896700 -61.297199 -19.524599 0.000000 0.000000 0.000000 -22.743000 -5.202300 11.784000 4.611800 12.932900 39.117599 0.894100 0.201700 17.808500 0.131900 -2.341100 -6.449400 0.000000 0.000000 0.000000 31.397301 3.031700 -38.727600 -7.027500 -15.355000 48.978298 0.217700 -11.764400 -13.252500 -0.762200 -5.575400 15.557300 -6.857500 -2.231500 11.057800 -0.942300 -3.938600 -0.054200 3.477800 -1.759000 -5.874000 -12.528500 -7.125300 -24.056900 8.608400 -7.288000 15.059900 3.916500 -3.191300 9.468300 -0.000000 0.000000 0.000000 -92.285896 15.778300 47.653301 125.241600 -54.743198 -89.981400 -0.000000 0.000000 -29.518299 16.365999 9.168900 2.679200 -7.125000 0.000000 -0.000000 -9.188600 39.368900 1.287700 -0.000000 0.000000 0.000000 80.892899 -23.683500 43.596199 -127.600998 53.918400 -91.898300 0.000000 -0.000000 -17.014500 -7.654500 19.976400 -2.628800 7.125000 -0.000000 -0.000000 13.310600 -10.254700 11.038400 
0.260544 0.513106 0.147434 31.760300 -62.190102 -20.426100 0.000000 0.000000 0.000000 -22.541100 -4.979100 10.437300 5.266600 13.677800 41.961899 0.829400 0.478700 17.057301 0.151400 -2.507000 -6.909100 0.000000 0.000000 0.000000 31.672001 2.502100 -37.506100 -7.055900 -15.378800 49.085300 0.038600 -10.694100 -14.623800 -0.777500 -5.629900 15.714400 -6.519800 -2.269600 11.010800 -0.618900 -3.916500 -0.022400 3.622700 -1.755200 -5.813900 -12.564100 -6.912300 -23.984100 8.040000 -6.859100 14.902800 3.789100 -3.057700 9.329000 -0.000000 0.000000 0.000000 -93.515602 15.946400 48.331902 125.457298 -54.671101 -90.157402 -0.000000 0.000000 -32.494598 21.427200 10.155700 3.958400 -7.125000 0.000000 -0.000000 -4.953000 40.822601 0.511700 -0.000000 0.000000 0.000000 80.309097 -22.898001 43.564800 -127.426300 53.982201 -91.757103 0.000000 -0.000000 -17.416201 -7.592000 19.908300 -2.598700 7.125000 -0.000000 -0.000000 13.351000 -10.326200 11.054000 
0.253550 0.511919 0.153344 32.708401 -62.867100 -21.209900 0.000000 0.000000 0.000000 -22.453300 -5.319900 8.882400 5.968600 14.397900 44.855701 0.771600 1.393600 16.182501 0.140500 -2.416200 -6.657300 0.000000 0.000000 0.000000 31.474800 2.448600 -36.427799 -7.077200 -15.396500 49.165699 -0.110100 -10.144000 -16.090500 -0.690100 -5.310700 14.797000 -6.252100 -2.282100 10.998700 -0.334200 -3.881100 -0.133000 3.770900 -1.733300 -5.924700 -12.398200 -6.772800 -23.724701 7.226900 -6.582700 14.859100 3.520800 -3.014500 9.201100 -0.000000 0.000000 0.000000 -94.411003 16.128599 47.535099 124.483597 -54.991699 -89.361504 -0.000000 0.000000 -30.134199 16.542400 10.280600 3.034300 -7.125000 0.000000 -0.000000 -9.240400 40.522999 1.030000 -0.000000 0.000000 0.000000 79.921898 -22.119699 43.523899 -127.078201 54.108002 -91.475304 0.000000 -0.000000 -17.756599 -7.622600 19.770599 -2.591900 7.125000 -0.000000 -0.000000 13.333300 -10.458500 11.001500 
